<svg xmlns="http://www.w3.org/2000/svg" width="39.74" height="25.329" viewBox="0 0 39.74 25.329">
  <g id="eye" transform="translate(0 -92.835)">
    <g id="Group_827" data-name="Group 827" transform="translate(0 92.835)">
      <g id="Group_826" data-name="Group 826" transform="translate(0)">
        <path id="Path_11692" data-name="Path 11692" d="M39.488,104.727c-.355-.486-8.814-11.892-19.618-11.892S.607,104.241.252,104.726a1.311,1.311,0,0,0,0,1.546c.355.486,8.814,11.892,19.618,11.892s19.263-11.406,19.618-11.891A1.31,1.31,0,0,0,39.488,104.727ZM19.87,115.544c-7.958,0-14.851-7.57-16.891-10.045,2.038-2.477,8.916-10.043,16.891-10.043,7.958,0,14.85,7.569,16.891,10.045C34.723,107.977,27.845,115.544,19.87,115.544Z" transform="translate(0 -92.835)" fill="#c5c5c5"/>
      </g>
    </g>
    <g id="Group_829" data-name="Group 829" transform="translate(12.009 97.639)">
      <g id="Group_828" data-name="Group 828" transform="translate(0 0)">
        <path id="Path_11693" data-name="Path 11693" d="M162.583,154.725a7.861,7.861,0,1,0,7.861,7.861A7.87,7.87,0,0,0,162.583,154.725Zm0,13.1a5.24,5.24,0,1,1,5.24-5.24A5.246,5.246,0,0,1,162.583,167.826Z" transform="translate(-154.722 -154.725)" fill="#c5c5c5"/>
      </g>
    </g>
  </g>
</svg>
